<svg class="prefix__icon" viewBox="0 0 1024 1024" xmlns="http://www.w3.org/2000/svg" width="200" height="200">
  <path
    d="M512 0c199.744 0 368.448 145.28 405.414 340.813 55.322 13.555 94.247 63.142 94.247 120.102v180.992c0 56.077-37.312 103.45-88.512 118.63l.115-5.055c0 130.227-100.429 236.876-227.072 243.417l-12.34.307-66.738.116A57.956 57.956 0 01569.613 1024H454.259c-32.025 0-57.984-25.958-57.984-57.984v-2.163c0-32.077 26.035-57.984 57.984-57.984h115.354c17.216 0 32.627 7.398 43.174 19.251l71.066.064c87.782 0 159.885-70.323 165.069-159.334l.192-6.413c-50.714-16.743-84.98-64.115-85.005-117.517V460.928c0-52.429 32.691-97.28 78.707-115.29C809.088 189.005 672.576 74.022 512 74.022c-160.627 0-297.14 115.047-330.88 271.616 47.488 18.573 78.733 64.359 78.707 115.354V641.92c0 68.34-55.411 123.75-123.75 123.75S12.339 710.246 12.339 641.907V460.928c0-58.176 40.103-106.97 94.26-120.23C143.487 145.33 312.191 0 512 0zm170.624 717.043a37.012 37.012 0 01-7.654 51.815c-20.11 14.873-41.46 27.02-63.783 36.147-31.77 12.953-65.139 19.737-99.2 19.737-32.819 0-64.96-6.233-95.667-18.316a292.31 292.31 0 01-67.06-37.44 37.016 37.016 0 016.823-64.359 36.986 36.986 0 0137.223 4.89c15.974 11.84 32.69 21.222 50.035 28.006 22.208 8.704 45.21 13.146 68.659 13.146 24.307 0 48.18-4.749 71.194-14.183 16.473-6.72 32.448-15.795 47.68-27.148 16.422-12.16 39.59-8.704 51.75 7.705zM136.077 411.2a49.669 49.669 0 00-35.149 14.566 49.722 49.722 0 00-14.566 35.162V641.92a49.739 49.739 0 0024.857 43.06 49.702 49.702 0 0049.715 0 49.711 49.711 0 0024.858-43.06V460.928a49.721 49.721 0 00-14.566-35.162 49.723 49.723 0 00-35.15-14.566zm751.782 0a49.677 49.677 0 00-35.161 14.566 49.722 49.722 0 00-14.567 35.162V641.92c0 27.482 22.272 49.754 49.754 49.754 27.469 0 49.753-22.272 49.753-49.754V460.928a49.677 49.677 0 00-14.592-35.174A49.692 49.692 0 00887.86 411.2zm0 0" />
</svg>
