<?xml version="1.0" standalone="no"?><!DOCTYPE svg PUBLIC "-//W3C//DTD SVG 1.1//EN" "http://www.w3.org/Graphics/SVG/1.1/DTD/svg11.dtd"><svg t="1744767336439" class="icon" viewBox="0 0 1024 1024" version="1.1" xmlns="http://www.w3.org/2000/svg" p-id="1087" xmlns:xlink="http://www.w3.org/1999/xlink" width="200" height="200"><path d="M809.539546 1000.2816c-4.9152-0.0256-9.7664-1.1904-14.144-3.4176L512.016346 847.8592 228.624346 996.864a30.49344 30.49344 0 0 1-32.064-2.3936 30.51008 30.51008 0 0 1-12.0832-29.7984l54.144-315.5712L9.142746 425.7024a30.47168 30.47168 0 0 1-7.616-31.2832A30.48448 30.48448 0 0 1 26.205146 373.76l317.0432-46.0928L484.701146 40.6272a30.48832 30.48832 0 0 1 54.6304 0l141.696 287.04L998.057946 373.76a29.7472 29.7472 0 0 1 24.384 20.736c3.6736 10.9952 0.7296 23.1168-7.5648 31.2192L785.398746 649.1008l54.144 315.5712c1.6 8.8576-0.832 17.9712-6.6304 24.8448a30.28096 30.28096 0 0 1-23.3728 10.7648zM95.965146 425.216l196.5696 191.4368a30.2464 30.2464 0 0 1 8.7808 27.072L254.979546 914.176l243.8784-127.7952a30.52032 30.52032 0 0 1 28.288 0l243.8784 127.7952-46.336-270.4512c-2.2784-9.6 0.2688-19.6992 6.8352-27.072L928.067546 425.216 656.387546 385.7152a30.7392 30.7392 0 0 1-22.9248-16.576L512.016346 122.816l-121.9328 246.3104a30.7072 30.7072 0 0 1-22.9248 16.576L95.965146 425.216z m0 0" p-id="1088"></path></svg>