<?xml version="1.0" standalone="no"?><!DOCTYPE svg PUBLIC "-//W3C//DTD SVG 1.1//EN" "http://www.w3.org/Graphics/SVG/1.1/DTD/svg11.dtd"><svg t="1627482009666" class="icon" viewBox="0 0 1024 1024" version="1.1" xmlns="http://www.w3.org/2000/svg" p-id="1972" xmlns:xlink="http://www.w3.org/1999/xlink" width="200" height="200"><defs><style type="text/css">@font-face { font-family: feedback-iconfont; src: url("//at.alicdn.com/t/font_1031158_1uhr8ri0pk5.eot?#iefix") format("embedded-opentype"), url("//at.alicdn.com/t/font_1031158_1uhr8ri0pk5.woff2") format("woff2"), url("//at.alicdn.com/t/font_1031158_1uhr8ri0pk5.woff") format("woff"), url("//at.alicdn.com/t/font_1031158_1uhr8ri0pk5.ttf") format("truetype"), url("//at.alicdn.com/t/font_1031158_1uhr8ri0pk5.svg#iconfont") format("svg"); }
</style></defs><path d="M508.839698 0.005973c59.732985-0.255999 113.492671 36.863785 135.081879 93.354122 16.981234 42.239754 61.012977 65.791616 104.276725 57.258333l9.983942-2.559985a145.748483 145.748483 0 0 1 158.377743 48.639716c37.973112 47.530389 43.263748 113.919335 13.397255 167.081692a95.487443 95.487443 0 0 0 28.842498 124.58594c49.919709 33.877136 74.495565 95.060779 61.951639 154.623098a148.05247 148.05247 0 0 1-106.154047 112.980675l-12.458594 2.815983c-47.786388 8.191952-81.578191 51.797031-78.079545 100.692746a149.332462 149.332462 0 0 1-81.919522 145.919149 145.321819 145.321819 0 0 1-153.257773-15.103912l-10.581271-8.959948a92.500794 92.500794 0 0 0-126.121931 0c-26.623845 26.709178-62.29297 41.983755-99.668752 42.666418a148.479134 148.479134 0 0 1-63.743628-14.762581 146.772477 146.772477 0 0 1-83.711512-144.553823A94.634115 94.634115 0 0 0 135.679209 767.148165l-10.069275-2.047988a147.967137 147.967137 0 0 1-121.684624-113.492671c-12.799925-55.210345 6.399963-112.639343 48.810382-148.479134l10.239941-7.935954c39.594436-28.159836 51.370367-82.431519 26.965176-124.841938a150.78312 150.78312 0 0 1 10.666604-168.276352 146.175147 146.175147 0 0 1 146.175147-53.930352l12.543927 3.242648a92.756792 92.756792 0 0 0 108.884698-46.677061l4.266642-9.386612A144.553823 144.553823 0 0 1 508.839698 0.005973z m0.341332 85.332836h-0.853329a59.732985 59.732985 0 0 0-56.319671 40.703762A178.345626 178.345626 0 0 1 234.238634 232.964614a60.756979 60.756979 0 0 0-66.047615 21.333209 65.706283 65.706283 0 0 0-4.181309 73.556905c46.250397 80.383531 23.978527 183.124265-51.711698 236.969284a64.852955 64.852955 0 0 0-25.173187 67.498273c5.973298 25.599851 26.367846 44.629073 51.370367 48.383718a179.796285 179.796285 0 0 1 152.063113 177.236299l-0.341331 13.311922a61.780973 61.780973 0 0 0 35.669125 61.098311c8.533284 4.095976 17.74923 6.229297 25.087854 6.314629a58.538325 58.538325 0 0 0 34.986462-12.799925l8.277285-7.167958a177.918962 177.918962 0 0 1 242.25992 0.085333 60.074316 60.074316 0 0 0 67.839605 10.069274 63.743628 63.743628 0 0 0 34.815797-54.357016l-0.170666-8.959948a180.222949 180.222949 0 0 1 148.479134-190.80422 62.548968 62.548968 0 0 0 49.919709-49.237046 64.682289 64.682289 0 0 0-26.965176-66.986276 180.905611 180.905611 0 0 1-54.783681-236.54262 65.194286 65.194286 0 0 0-5.7173-72.191579 60.586313 60.586313 0 0 0-66.047615-20.309215 178.430959 178.430959 0 0 1-213.844085-92.756792l-5.7173-12.799925A58.964989 58.964989 0 0 0 509.18103 85.338809zM511.997013 341.337316a170.665671 170.665671 0 1 1 0 341.331342 170.665671 170.665671 0 0 1 0-341.331342z m0 85.332835a85.332836 85.332836 0 1 0 0 170.665671 85.332836 85.332836 0 0 0 0-170.665671z" fill="#1F2E4D" p-id="1973"></path></svg>