<?xml version="1.0" standalone="no"?><!DOCTYPE svg PUBLIC "-//W3C//DTD SVG 1.1//EN" "http://www.w3.org/Graphics/SVG/1.1/DTD/svg11.dtd"><svg t="1744767331063" class="icon" viewBox="0 0 1024 1024" version="1.1" xmlns="http://www.w3.org/2000/svg" p-id="929" xmlns:xlink="http://www.w3.org/1999/xlink" width="200" height="200"><path d="M512 0c199.743995 0 368.447991 145.279996 405.41439 340.812791 55.321599 13.5552 94.246398 63.142398 94.246398 120.102397v180.991996c0 56.076799-37.311999 103.449597-88.511998 118.630397l0.1152-5.056c0 130.227197-100.428797 236.876794-227.071995 243.417594l-12.339199 0.3072-66.739199 0.1152A57.955839 57.955839 0 0 1 569.612799 1023.999974h-115.353598c-32.025599 0-57.983999-25.958399-57.983998-57.983998v-2.1632c0-32.076799 26.035199-57.983999 57.983998-57.983999h115.353598c17.216 0 32.627199 7.3984 43.174398 19.2512l71.065599 0.064c87.782398 0 159.884796-70.323198 165.068796-159.334396l0.192-6.4128c-50.713599-16.7424-84.979198-64.115198-85.004798-117.516797V460.927988c0-52.428799 32.691199-97.279998 78.707198-115.289597-33.727999-156.633596-170.239996-271.615993-330.815992-271.615993-160.627196 0-297.139193 115.046397-330.879992 271.615993 47.487999 18.5728 78.732798 64.358398 78.707198 115.353597V641.919984c0 68.339198-55.411199 123.750397-123.750397 123.750397s-123.737597-55.423999-123.737597-123.763197V460.927988c0-58.175999 40.102399-106.969597 94.259198-120.230397C143.488009 145.331196 312.192005 0 512 0z m170.623996 717.043182a37.012479 37.012479 0 0 1-7.6544 51.814399c-20.108799 14.8736-41.459199 27.020799-63.782398 36.147199-31.769599 12.9536-65.139198 19.7376-99.199998 19.737599-32.819199 0-64.959998-6.2336-95.667198-18.316799a292.309753 292.309753 0 0 1-67.059198-37.439999 37.016319 37.016319 0 0 1 6.8224-64.358399c12.3776-5.2608 26.623999-3.3792 37.222399 4.8896 15.9744 11.84 32.691199 21.222399 50.035199 28.0064 22.207999 8.704 45.209599 13.1456 68.659198 13.145599 24.307199 0 48.179199-4.7488 71.193598-14.182399 16.4736-6.72 32.447999-15.7952 47.679999-27.1488 16.4224-12.16 39.590399-8.704 51.750399 7.7056zM136.076809 411.19999c-13.184 0-25.830399 5.2352-35.148799 14.566399a49.721599 49.721599 0 0 0-14.566399 35.161599v180.991996c0 17.7664 9.4848 34.175999 24.857599 43.059199a49.702399 49.702399 0 0 0 49.715199 0 49.711359 49.711359 0 0 0 24.857599-43.059199V460.927988c0-13.184-5.2352-25.830399-14.566399-35.161599a49.722879 49.722879 0 0 0-35.1488-14.566399z m751.782382 0a49.676799 49.676799 0 0 0-35.1616 14.566399 49.721599 49.721599 0 0 0-14.566399 35.161599v180.991996c0 27.481599 22.271999 49.753599 49.753599 49.753599 27.468799 0 49.753599-22.271999 49.753598-49.753599V460.927988c0-13.1968-5.248-25.855999-14.591999-35.174399a49.692159 49.692159 0 0 0-35.187199-14.553599z m0 0" p-id="930"></path></svg>