<svg viewBox="0 0 1024 1024"><path d="M451.413333 966.200889c-21.617778 0.056889-42.382222-8.533333-57.685333-23.808l-284.501333-284.444445a81.294222 81.294222 0 0 1-23.893334-57.742222c0-21.788444 8.476444-42.353778 23.950223-57.713778l405.617777-405.589333c30.776889-30.862222 84.536889-30.776889 115.456 0l284.416 284.501333a81.777778 81.777778 0 0 1 0 115.370667l-39.765333 39.736889a32.824889 32.824889 0 0 1-46.421333-46.421333l39.708444-39.708445a15.928889 15.928889 0 0 0 0-22.584889L583.964444 183.239111c-8.078222-8.078222-14.307556-8.192-22.641777 0L155.648 588.913778a15.928889 15.928889 0 0 0 0.056889 22.641778l284.444444 284.444444c6.257778 6.144 16.327111 6.144 22.613334 0l193.308444-193.336889a32.824889 32.824889 0 0 1 46.421333 46.421333L509.155556 942.364444c-15.36 15.274667-36.124444 23.836444-57.770667 23.808z"></path><path d="M840.192 377.543111H315.079111a32.824889 32.824889 0 1 0 0 65.649778h525.112889a32.824889 32.824889 0 1 0 0-65.649778z m-51.2 200.248889c33.564444 50.631111 65.592889 126.065778 65.592889 164.835556a65.735111 65.735111 0 0 1-65.649778 65.649777 65.735111 65.735111 0 0 1-65.649778-65.649777c0-38.058667 32.369778-114.147556 65.706667-164.807112z m-0.056889-97.649778c-60.131556 42.808889-131.271111 190.094222-131.271111 262.542222a131.299556 131.299556 0 0 0 262.542222 0c0-72.533333-70.627556-218.965333-131.271111-262.542222z"></path></svg>
